<?xml version="1.0" standalone="no"?><!DOCTYPE svg PUBLIC "-//W3C//DTD SVG 1.1//EN" "http://www.w3.org/Graphics/SVG/1.1/DTD/svg11.dtd"><svg t="1788006163059" class="icon" viewBox="0 0 1024 1024" version="1.1" xmlns="http://www.w3.org/2000/svg" p-id="5010" xmlns:xlink="http://www.w3.org/1999/xlink" width="200" height="200"><path d="M818.4 254.3H655.5V192c0-12.2-9.8-22-22-22-12.1 0-22 9.8-22 22v62.3h-206V192c0-12.2-9.8-22-22-22s-22 9.8-22 22v62.3H198.6c-12.2 0-22 9.9-22 22v568.2c0 12.1 9.8 22 22 22h619.8c12.2 0 22-9.9 22-22V276.3c0-12.2-9.8-22-22-22z m-456.9 44v42.1c0 12.2 9.8 22 22 22s22-9.8 22-22v-42.1h206v42.1c0 12.2 9.9 22 22 22 12.2 0 22-9.8 22-22v-42.1h140.9v121H220.6v-121h140.9zM220.6 822.5V463.3h575.8v359.2H220.6z" fill="#040000" p-id="5011"></path><path d="M427.1 560.4H318.9c-12.2 0-22 9.8-22 22s9.8 22 22 22h108.2c12.2 0 22-9.8 22-22s-9.8-22-22-22zM699.1 560.4H590.9c-12.2 0-22 9.8-22 22s9.8 22 22 22h108.2c12.2 0 22-9.8 22-22s-9.9-22-22-22zM427.1 672.3H318.9c-12.2 0-22 9.8-22 22 0 12.1 9.8 22 22 22h108.2c12.2 0 22-9.9 22-22 0-12.2-9.8-22-22-22zM699.1 672.3H590.9c-12.2 0-22 9.8-22 22 0 12.1 9.8 22 22 22h108.2c12.2 0 22-9.9 22-22 0-12.2-9.9-22-22-22z" fill="#040000" p-id="5012"></path></svg>